<svg aria-hidden="true" style="position: absolute; width: 0; height: 0; overflow: hidden;" version="1.1" xmlns="http://www.w3.org/2000/svg" xmlns:xlink="http://www.w3.org/1999/xlink">
<defs>
<symbol id="icon-x" viewBox="0 0 32 32">
<path d="M24.325 3h4.411l-9.636 11.013 11.336 14.987h-8.876l-6.952-9.089-7.955 9.089h-4.413l10.307-11.78-10.875-14.22h9.101l6.284 8.308zM22.777 26.36h2.444l-15.776-20.859h-2.623z"></path>
</symbol>
<symbol id="icon-arrow-shuffle" viewBox="0 0 24 24">
<path d="M4 9h3.5c0.736 0 1.393 0.391 1.851 1.001 0.325-0.604 0.729-1.163 1.191-1.662-0.803-0.823-1.866-1.339-3.042-1.339h-3.5c-0.553 0-1 0.448-1 1s0.447 1 1 1z"></path>
<path d="M11.685 12.111c0.551-1.657 2.256-3.111 3.649-3.111h1.838l-1.293 1.293c-0.391 0.391-0.391 1.023 0 1.414 0.195 0.195 0.451 0.293 0.707 0.293s0.512-0.098 0.707-0.293l3.707-3.707-3.707-3.707c-0.391-0.391-1.023-0.391-1.414 0s-0.391 1.023 0 1.414l1.293 1.293h-1.838c-2.274 0-4.711 1.967-5.547 4.479l-0.472 1.411c-0.641 1.926-2.072 3.11-2.815 3.11h-2.5c-0.553 0-1 0.448-1 1s0.447 1 1 1h2.5c1.837 0 3.863-1.925 4.713-4.479l0.472-1.41z"></path>
<path d="M15.879 13.293c-0.391 0.391-0.391 1.023 0 1.414l1.293 1.293h-2.338c-1.268 0-2.33-0.891-2.691-2.108-0.256 0.75-0.627 1.499-1.090 2.185 0.886 1.162 2.243 1.923 3.781 1.923h2.338l-1.293 1.293c-0.391 0.391-0.391 1.023 0 1.414 0.195 0.195 0.451 0.293 0.707 0.293s0.512-0.098 0.707-0.293l3.707-3.707-3.707-3.707c-0.391-0.391-1.023-0.391-1.414 0z"></path>
</symbol>
<symbol id="icon-chat_bubble" viewBox="0 0 24 24">
<path d="M20.016 2.016q0.797 0 1.383 0.586t0.586 1.383v12q0 0.797-0.586 1.406t-1.383 0.609h-14.016l-3.984 3.984v-18q0-0.797 0.586-1.383t1.383-0.586h16.031z"></path>
</symbol>
<symbol id="icon-chat" viewBox="0 0 24 24">
<path d="M18 8.016v-2.016h-12v2.016h12zM14.016 14.016v-2.016h-8.016v2.016h8.016zM6 9v2.016h12v-2.016h-12zM20.016 2.016q0.797 0 1.383 0.586t0.586 1.383v12q0 0.797-0.586 1.406t-1.383 0.609h-14.016l-3.984 3.984v-18q0-0.797 0.586-1.383t1.383-0.586h16.031z"></path>
</symbol>
<symbol id="icon-security" viewBox="0 0 24 24">
<path d="M12 0.984l9 4.031v6q0 4.172-2.578 7.617t-6.422 4.383q-3.844-0.938-6.422-4.383t-2.578-7.617v-6zM12 12v8.953q2.766-0.891 4.688-3.352t2.297-5.602h-6.984zM12 12v-8.813l-6.984 3.094v5.719h6.984z"></path>
</symbol>
<symbol id="icon-mouse" viewBox="0 0 24 24">
<path d="M11.016 1.078v7.922h-7.031q0-3.047 2.039-5.297t4.992-2.625zM3.984 15v-3.984h16.031v3.984q0 3.281-2.367 5.648t-5.648 2.367-5.648-2.367-2.367-5.648zM12.984 1.078q2.953 0.375 4.992 2.625t2.039 5.297h-7.031v-7.922z"></path>
</symbol>
<symbol id="icon-bar-graph" viewBox="0 0 20 20">
<path d="M17 1h-2c-0.552 0-1 0.447-1 1v16.992h4v-16.992c0-0.553-0.447-1-1-1zM11 7h-2c-0.552 0-1 0.447-1 1v10.992h4v-10.992c0-0.553-0.447-1-1-1zM5 13h-2c-0.552 0-1 0.447-1 1v4.992h4v-4.992c0-0.553-0.447-1-1-1z"></path>
</symbol>
<symbol id="icon-study" viewBox="0 0 32 32">
<path d="M32 8c0-1.406-0.957-2.608-2.326-2.924l-13.013-3.003c-0.218-0.049-0.44-0.073-0.661-0.073s-0.443 0.024-0.675 0.076l-12.999 3c-1.37 0.316-2.326 1.518-2.326 2.924s0.957 2.608 2.325 2.924l2.675 0.617v8.459c0 2.654 3.038 5 11 5s11-2.346 11-5v-8.459l2.674-0.617c1.369-0.316 2.326-1.518 2.326-2.924zM25 20c0 1.105-3 3-9 3s-9-1.895-9-3v-7.997l8.338 1.924c0.218 0.049 0.441 0.073 0.662 0.073s0.444-0.024 0.674-0.076l8.326-1.921v7.997zM16.225 11.975c-0.075 0.016-0.15 0.025-0.225 0.025s-0.151-0.009-0.225-0.025l-13-3c-0.454-0.105-0.775-0.509-0.775-0.975s0.321-0.87 0.775-0.975l13-3c0.074-0.016 0.149-0.025 0.225-0.025s0.151 0.009 0.225 0.025l13 3c0.453 0.105 0.775 0.509 0.775 0.975s-0.322 0.87-0.775 0.975l-13 3zM29 13c0-0.553 0.447-1 1-1 0.552 0 1 0.447 1 1v9c0 0.553-0.448 1-1 1-0.553 0-1-0.447-1-1v-9zM30 24c1.104 0 2 2.896 2 4s-0.896 2-2 2c-1.105 0-2-0.896-2-2s0.895-4 2-4z"></path>
</symbol>
<symbol id="icon-paperplane" viewBox="0 0 32 32">
<path d="M31.543 0.16c-0.166-0.107-0.355-0.16-0.543-0.16-0.193 0-0.387 0.055-0.555 0.168l-30 20c-0.309 0.205-0.479 0.566-0.439 0.936 0.038 0.369 0.278 0.688 0.623 0.824l7.824 3.131 3.679 6.438c0.176 0.309 0.503 0.5 0.857 0.504 0.004 0 0.007 0 0.011 0 0.351 0 0.677-0.186 0.857-0.486l2.077-3.463 9.695 3.877c0.119 0.048 0.244 0.071 0.371 0.071 0.17 0 0.338-0.043 0.49-0.129 0.264-0.148 0.445-0.408 0.496-0.707l5-30c0.065-0.393-0.109-0.787-0.443-1.004zM3.136 20.777l23.175-15.451-16.85 18.037c-0.089-0.053-0.168-0.123-0.266-0.162l-6.059-2.424zM10.189 24.066c-0.002-0.004-0.005-0.006-0.007-0.010l18.943-20.275-16.149 25.162-2.787-4.877zM25.217 29.609l-8.541-3.416c-0.203-0.080-0.414-0.107-0.623-0.119l13.152-20.388-3.988 23.923z"></path>
</symbol>
<symbol id="icon-search" viewBox="0 0 26 28">
<path d="M18 13c0-3.859-3.141-7-7-7s-7 3.141-7 7 3.141 7 7 7 7-3.141 7-7zM26 26c0 1.094-0.906 2-2 2-0.531 0-1.047-0.219-1.406-0.594l-5.359-5.344c-1.828 1.266-4.016 1.937-6.234 1.937-6.078 0-11-4.922-11-11s4.922-11 11-11 11 4.922 11 11c0 2.219-0.672 4.406-1.937 6.234l5.359 5.359c0.359 0.359 0.578 0.875 0.578 1.406z"></path>
</symbol>
<symbol id="icon-clock-o" viewBox="0 0 24 28">
<path d="M14 8.5v7c0 0.281-0.219 0.5-0.5 0.5h-5c-0.281 0-0.5-0.219-0.5-0.5v-1c0-0.281 0.219-0.5 0.5-0.5h3.5v-5.5c0-0.281 0.219-0.5 0.5-0.5h1c0.281 0 0.5 0.219 0.5 0.5zM20.5 14c0-4.688-3.813-8.5-8.5-8.5s-8.5 3.813-8.5 8.5 3.813 8.5 8.5 8.5 8.5-3.813 8.5-8.5zM24 14c0 6.625-5.375 12-12 12s-12-5.375-12-12 5.375-12 12-12 12 5.375 12 12z"></path>
</symbol>
<symbol id="icon-lock" viewBox="0 0 18 28">
<path d="M5 12h8v-3c0-2.203-1.797-4-4-4s-4 1.797-4 4v3zM18 13.5v9c0 0.828-0.672 1.5-1.5 1.5h-15c-0.828 0-1.5-0.672-1.5-1.5v-9c0-0.828 0.672-1.5 1.5-1.5h0.5v-3c0-3.844 3.156-7 7-7s7 3.156 7 7v3h0.5c0.828 0 1.5 0.672 1.5 1.5z"></path>
</symbol>
<symbol id="icon-pencil" viewBox="0 0 24 28">
<path d="M5.672 24l1.422-1.422-3.672-3.672-1.422 1.422v1.672h2v2h1.672zM13.844 9.5c0-0.203-0.141-0.344-0.344-0.344-0.094 0-0.187 0.031-0.266 0.109l-8.469 8.469c-0.078 0.078-0.109 0.172-0.109 0.266 0 0.203 0.141 0.344 0.344 0.344 0.094 0 0.187-0.031 0.266-0.109l8.469-8.469c0.078-0.078 0.109-0.172 0.109-0.266zM13 6.5l6.5 6.5-13 13h-6.5v-6.5zM23.672 8c0 0.531-0.219 1.047-0.578 1.406l-2.594 2.594-6.5-6.5 2.594-2.578c0.359-0.375 0.875-0.594 1.406-0.594s1.047 0.219 1.422 0.594l3.672 3.656c0.359 0.375 0.578 0.891 0.578 1.422z"></path>
</symbol>
<symbol id="icon-question-circle" viewBox="0 0 24 28">
<path d="M14 21.5v-3c0-0.281-0.219-0.5-0.5-0.5h-3c-0.281 0-0.5 0.219-0.5 0.5v3c0 0.281 0.219 0.5 0.5 0.5h3c0.281 0 0.5-0.219 0.5-0.5zM18 11c0-2.859-3-5-5.688-5-2.547 0-4.453 1.094-5.797 3.328-0.141 0.219-0.078 0.5 0.125 0.656l2.063 1.563c0.078 0.063 0.187 0.094 0.297 0.094 0.141 0 0.297-0.063 0.391-0.187 0.734-0.938 1.047-1.219 1.344-1.437 0.266-0.187 0.781-0.375 1.344-0.375 1 0 1.922 0.641 1.922 1.328 0 0.812-0.422 1.219-1.375 1.656-1.109 0.5-2.625 1.797-2.625 3.313v0.562c0 0.281 0.219 0.5 0.5 0.5h3c0.281 0 0.5-0.219 0.5-0.5v0c0-0.359 0.453-1.125 1.188-1.547 1.188-0.672 2.812-1.578 2.812-3.953zM24 14c0 6.625-5.375 12-12 12s-12-5.375-12-12 5.375-12 12-12 12 5.375 12 12z"></path>
</symbol>
<symbol id="icon-shopping-cart" viewBox="0 0 26 28">
<path d="M10 24c0 1.094-0.906 2-2 2s-2-0.906-2-2 0.906-2 2-2 2 0.906 2 2zM24 24c0 1.094-0.906 2-2 2s-2-0.906-2-2 0.906-2 2-2 2 0.906 2 2zM26 7v8c0 0.5-0.391 0.938-0.891 1l-16.312 1.906c0.078 0.359 0.203 0.719 0.203 1.094 0 0.359-0.219 0.688-0.375 1h14.375c0.547 0 1 0.453 1 1s-0.453 1-1 1h-16c-0.547 0-1-0.453-1-1 0-0.484 0.703-1.656 0.953-2.141l-2.766-12.859h-3.187c-0.547 0-1-0.453-1-1s0.453-1 1-1h4c1.047 0 1.078 1.25 1.234 2h18.766c0.547 0 1 0.453 1 1z"></path>
</symbol>
<symbol id="icon-folder-open" viewBox="0 0 29 28">
<path d="M29.359 14.875c0 0.375-0.234 0.75-0.484 1.031l-5.25 6.188c-0.906 1.062-2.75 1.906-4.125 1.906h-17c-0.562 0-1.359-0.172-1.359-0.875 0-0.375 0.234-0.75 0.484-1.031l5.25-6.188c0.906-1.062 2.75-1.906 4.125-1.906h17c0.562 0 1.359 0.172 1.359 0.875zM24 9.5v2.5h-13c-1.953 0-4.375 1.109-5.641 2.609l-5.344 6.281c0-0.125-0.016-0.266-0.016-0.391v-15c0-1.922 1.578-3.5 3.5-3.5h5c1.922 0 3.5 1.578 3.5 3.5v0.5h8.5c1.922 0 3.5 1.578 3.5 3.5z"></path>
</symbol>
<symbol id="icon-cogs" viewBox="0 0 30 28">
<path d="M14 14c0-2.203-1.797-4-4-4s-4 1.797-4 4 1.797 4 4 4 4-1.797 4-4zM26 22c0-1.094-0.906-2-2-2s-2 0.906-2 2c0 1.109 0.906 2 2 2 1.109 0 2-0.906 2-2zM26 6c0-1.094-0.906-2-2-2s-2 0.906-2 2c0 1.109 0.906 2 2 2 1.109 0 2-0.906 2-2zM20 12.578v2.891c0 0.203-0.156 0.438-0.359 0.469l-2.422 0.375c-0.125 0.406-0.297 0.797-0.5 1.188 0.438 0.625 0.906 1.203 1.406 1.797 0.063 0.094 0.109 0.187 0.109 0.313 0 0.109-0.031 0.219-0.109 0.297-0.313 0.422-2.063 2.328-2.516 2.328-0.125 0-0.234-0.047-0.328-0.109l-1.797-1.406c-0.391 0.203-0.781 0.359-1.203 0.484-0.078 0.797-0.156 1.656-0.359 2.422-0.063 0.219-0.25 0.375-0.469 0.375h-2.906c-0.219 0-0.438-0.172-0.469-0.391l-0.359-2.391c-0.406-0.125-0.797-0.297-1.172-0.484l-1.844 1.391c-0.078 0.078-0.203 0.109-0.313 0.109-0.125 0-0.234-0.047-0.328-0.125-0.406-0.375-2.25-2.047-2.25-2.5 0-0.109 0.047-0.203 0.109-0.297 0.453-0.594 0.922-1.172 1.375-1.781-0.219-0.422-0.406-0.844-0.547-1.281l-2.375-0.375c-0.219-0.031-0.375-0.234-0.375-0.453v-2.891c0-0.203 0.156-0.438 0.359-0.469l2.422-0.375c0.125-0.406 0.297-0.797 0.5-1.188-0.438-0.625-0.906-1.203-1.406-1.797-0.063-0.094-0.109-0.203-0.109-0.313s0.031-0.219 0.109-0.313c0.313-0.422 2.063-2.312 2.516-2.312 0.125 0 0.234 0.047 0.328 0.109l1.797 1.406c0.391-0.203 0.781-0.359 1.203-0.5 0.078-0.781 0.156-1.641 0.359-2.406 0.063-0.219 0.25-0.375 0.469-0.375h2.906c0.219 0 0.438 0.172 0.469 0.391l0.359 2.391c0.406 0.125 0.797 0.297 1.172 0.484l1.844-1.391c0.094-0.078 0.203-0.109 0.313-0.109 0.125 0 0.234 0.047 0.328 0.125 0.406 0.375 2.25 2.063 2.25 2.5 0 0.109-0.047 0.203-0.109 0.297-0.453 0.609-0.922 1.172-1.359 1.781 0.203 0.422 0.391 0.844 0.531 1.281l2.375 0.359c0.219 0.047 0.375 0.25 0.375 0.469zM30 20.906v2.188c0 0.234-2.016 0.453-2.328 0.484-0.125 0.297-0.281 0.562-0.469 0.812 0.141 0.313 0.797 1.875 0.797 2.156 0 0.047-0.016 0.078-0.063 0.109-0.187 0.109-1.859 1.109-1.937 1.109-0.203 0-1.375-1.563-1.531-1.797-0.156 0.016-0.313 0.031-0.469 0.031s-0.313-0.016-0.469-0.031c-0.156 0.234-1.328 1.797-1.531 1.797-0.078 0-1.75-1-1.937-1.109-0.047-0.031-0.063-0.078-0.063-0.109 0-0.266 0.656-1.844 0.797-2.156-0.187-0.25-0.344-0.516-0.469-0.812-0.313-0.031-2.328-0.25-2.328-0.484v-2.188c0-0.234 2.016-0.453 2.328-0.484 0.125-0.281 0.281-0.562 0.469-0.812-0.141-0.313-0.797-1.891-0.797-2.156 0-0.031 0.016-0.078 0.063-0.109 0.187-0.094 1.859-1.094 1.937-1.094 0.203 0 1.375 1.547 1.531 1.781 0.156-0.016 0.313-0.031 0.469-0.031s0.313 0.016 0.469 0.031c0.438-0.609 0.906-1.219 1.437-1.75l0.094-0.031c0.078 0 1.75 0.984 1.937 1.094 0.047 0.031 0.063 0.078 0.063 0.109 0 0.281-0.656 1.844-0.797 2.156 0.187 0.25 0.344 0.531 0.469 0.812 0.313 0.031 2.328 0.25 2.328 0.484zM30 4.906v2.187c0 0.234-2.016 0.453-2.328 0.484-0.125 0.297-0.281 0.562-0.469 0.812 0.141 0.313 0.797 1.875 0.797 2.156 0 0.047-0.016 0.078-0.063 0.109-0.187 0.109-1.859 1.109-1.937 1.109-0.203 0-1.375-1.563-1.531-1.797-0.156 0.016-0.313 0.031-0.469 0.031s-0.313-0.016-0.469-0.031c-0.156 0.234-1.328 1.797-1.531 1.797-0.078 0-1.75-1-1.937-1.109-0.047-0.031-0.063-0.078-0.063-0.109 0-0.266 0.656-1.844 0.797-2.156-0.187-0.25-0.344-0.516-0.469-0.812-0.313-0.031-2.328-0.25-2.328-0.484v-2.188c0-0.234 2.016-0.453 2.328-0.484 0.125-0.281 0.281-0.562 0.469-0.812-0.141-0.313-0.797-1.891-0.797-2.156 0-0.031 0.016-0.078 0.063-0.109 0.187-0.094 1.859-1.094 1.937-1.094 0.203 0 1.375 1.547 1.531 1.781 0.156-0.016 0.313-0.031 0.469-0.031s0.313 0.016 0.469 0.031c0.438-0.609 0.906-1.219 1.437-1.75l0.094-0.031c0.078 0 1.75 0.984 1.937 1.094 0.047 0.031 0.063 0.078 0.063 0.109 0 0.281-0.656 1.844-0.797 2.156 0.187 0.25 0.344 0.531 0.469 0.812 0.313 0.031 2.328 0.25 2.328 0.484z"></path>
</symbol>
<symbol id="icon-phone-square" viewBox="0 0 24 28">
<path d="M20 18.641c0-0.078 0-0.172-0.031-0.25-0.094-0.281-2.375-1.437-2.812-1.687-0.297-0.172-0.656-0.516-1.016-0.516-0.688 0-1.703 2.047-2.312 2.047-0.313 0-0.703-0.281-0.984-0.438-2.063-1.156-3.484-2.578-4.641-4.641-0.156-0.281-0.438-0.672-0.438-0.984 0-0.609 2.047-1.625 2.047-2.312 0-0.359-0.344-0.719-0.516-1.016-0.25-0.438-1.406-2.719-1.687-2.812-0.078-0.031-0.172-0.031-0.25-0.031-0.406 0-1.203 0.187-1.578 0.344-1.031 0.469-1.781 2.438-1.781 3.516 0 1.047 0.422 2 0.781 2.969 1.25 3.422 4.969 7.141 8.391 8.391 0.969 0.359 1.922 0.781 2.969 0.781 1.078 0 3.047-0.75 3.516-1.781 0.156-0.375 0.344-1.172 0.344-1.578zM24 6.5v15c0 2.484-2.016 4.5-4.5 4.5h-15c-2.484 0-4.5-2.016-4.5-4.5v-15c0-2.484 2.016-4.5 4.5-4.5h15c2.484 0 4.5 2.016 4.5 4.5z"></path>
</symbol>
<symbol id="icon-bullhorn" viewBox="0 0 28 28">
<path d="M26 10c1.109 0 2 0.891 2 2s-0.891 2-2 2v6c0 1.094-0.906 2-2 2-2.781-2.312-7.266-5.484-12.688-5.938-1.859 0.625-2.5 2.797-1.281 4.047-1.094 1.797 0.313 3.063 1.969 4.359-0.969 1.906-5 1.937-6.438 0.609-0.906-2.781-2.25-5.563-1.156-9.078h-1.906c-1.375 0-2.5-1.125-2.5-2.5v-3c0-1.375 1.125-2.5 2.5-2.5h7.5c6 0 11-3.5 14-6 1.094 0 2 0.906 2 2v6zM24 19.437v-14.906c-4.078 3.125-8.031 4.922-12 5.359v4.219c3.969 0.438 7.922 2.203 12 5.328z"></path>
</symbol>
<symbol id="icon-globe" viewBox="0 0 24 28">
<path d="M12 2c6.625 0 12 5.375 12 12s-5.375 12-12 12-12-5.375-12-12 5.375-12 12-12zM16.281 10.141c-0.125 0.094-0.203 0.266-0.359 0.297 0.078-0.016 0.156-0.297 0.203-0.359 0.094-0.109 0.219-0.172 0.344-0.234 0.266-0.109 0.531-0.141 0.812-0.187 0.266-0.063 0.594-0.063 0.797 0.172-0.047-0.047 0.328-0.375 0.375-0.391 0.141-0.078 0.375-0.047 0.469-0.187 0.031-0.047 0.031-0.344 0.031-0.344-0.266 0.031-0.359-0.219-0.375-0.438 0 0.016-0.031 0.063-0.094 0.125 0.016-0.234-0.281-0.063-0.391-0.094-0.359-0.094-0.313-0.344-0.422-0.609-0.063-0.141-0.234-0.187-0.297-0.328-0.063-0.094-0.094-0.297-0.234-0.313-0.094-0.016-0.266 0.328-0.297 0.313-0.141-0.078-0.203 0.031-0.313 0.094-0.094 0.063-0.172 0.031-0.266 0.078 0.281-0.094-0.125-0.25-0.266-0.219 0.219-0.063 0.109-0.297-0.016-0.406h0.078c-0.031-0.141-0.469-0.266-0.609-0.359s-0.891-0.25-1.047-0.156c-0.187 0.109 0.047 0.422 0.047 0.578 0.016 0.187-0.187 0.234-0.187 0.391 0 0.266 0.5 0.219 0.375 0.578-0.078 0.219-0.375 0.266-0.5 0.438-0.125 0.156 0.016 0.438 0.141 0.547 0.125 0.094-0.219 0.25-0.266 0.281-0.266 0.125-0.469-0.266-0.531-0.5-0.047-0.172-0.063-0.375-0.25-0.469-0.094-0.031-0.391-0.078-0.453 0.016-0.094-0.234-0.422-0.328-0.641-0.406-0.313-0.109-0.578-0.109-0.906-0.063 0.109-0.016-0.031-0.5-0.297-0.422 0.078-0.156 0.047-0.328 0.078-0.484 0.031-0.125 0.094-0.25 0.187-0.359 0.031-0.063 0.375-0.422 0.266-0.438 0.266 0.031 0.562 0.047 0.781-0.172 0.141-0.141 0.203-0.375 0.344-0.531 0.203-0.234 0.453 0.063 0.672 0.078 0.313 0.016 0.297-0.328 0.125-0.484 0.203 0.016 0.031-0.359-0.078-0.406-0.141-0.047-0.672 0.094-0.391 0.203-0.063-0.031-0.438 0.75-0.656 0.359-0.063-0.078-0.094-0.406-0.234-0.422-0.125 0-0.203 0.141-0.25 0.234 0.078-0.203-0.438-0.344-0.547-0.359 0.234-0.156 0.047-0.328-0.125-0.422-0.125-0.078-0.516-0.141-0.625-0.016-0.297 0.359 0.313 0.406 0.469 0.5 0.047 0.031 0.234 0.141 0.125 0.219-0.094 0.047-0.375 0.125-0.406 0.187-0.094 0.141 0.109 0.297-0.031 0.438-0.141-0.141-0.141-0.375-0.25-0.531 0.141 0.172-0.562 0.078-0.547 0.078-0.234 0-0.609 0.156-0.781-0.078-0.031-0.063-0.031-0.422 0.063-0.344-0.141-0.109-0.234-0.219-0.328-0.281-0.516 0.172-1 0.391-1.469 0.641 0.063 0.016 0.109 0.016 0.187-0.016 0.125-0.047 0.234-0.125 0.359-0.187 0.156-0.063 0.484-0.25 0.656-0.109 0.016-0.031 0.063-0.063 0.078-0.078 0.109 0.125 0.219 0.25 0.313 0.391-0.125-0.063-0.328-0.031-0.469-0.016-0.109 0.031-0.297 0.063-0.344 0.187 0.047 0.078 0.109 0.203 0.078 0.281-0.203-0.141-0.359-0.375-0.641-0.406-0.125 0-0.25 0-0.344 0.016-1.5 0.828-2.766 2.031-3.672 3.469 0.063 0.063 0.125 0.109 0.187 0.125 0.156 0.047 0 0.5 0.297 0.266 0.094 0.078 0.109 0.187 0.047 0.297 0.016-0.016 0.641 0.391 0.688 0.422 0.109 0.094 0.281 0.203 0.328 0.328 0.031 0.109-0.063 0.234-0.156 0.281-0.016-0.031-0.25-0.266-0.281-0.203-0.047 0.078 0 0.5 0.172 0.484-0.25 0.016-0.141 0.984-0.203 1.172 0 0.016 0.031 0.016 0.031 0.016-0.047 0.187 0.109 0.922 0.422 0.844-0.203 0.047 0.359 0.766 0.438 0.812 0.203 0.141 0.438 0.234 0.578 0.438 0.156 0.219 0.156 0.547 0.375 0.719-0.063 0.187 0.328 0.406 0.313 0.672-0.031 0.016-0.047 0.016-0.078 0.031 0.078 0.219 0.375 0.219 0.484 0.422 0.063 0.125 0 0.422 0.203 0.359 0.031-0.344-0.203-0.688-0.375-0.969-0.094-0.156-0.187-0.297-0.266-0.453-0.078-0.141-0.094-0.313-0.156-0.469 0.063 0.016 0.406 0.141 0.375 0.187-0.125 0.313 0.5 0.859 0.672 1.062 0.047 0.047 0.406 0.516 0.219 0.516 0.203 0 0.484 0.313 0.578 0.469 0.141 0.234 0.109 0.531 0.203 0.781 0.094 0.313 0.531 0.453 0.781 0.594 0.219 0.109 0.406 0.266 0.625 0.344 0.328 0.125 0.406 0.016 0.688-0.031 0.406-0.063 0.453 0.391 0.781 0.562 0.203 0.109 0.641 0.266 0.859 0.172-0.094 0.031 0.328 0.672 0.359 0.719 0.141 0.187 0.406 0.281 0.562 0.469 0.047-0.031 0.094-0.078 0.109-0.141-0.063 0.172 0.234 0.5 0.391 0.469 0.172-0.031 0.219-0.375 0.219-0.5-0.313 0.156-0.594 0.031-0.766-0.281-0.031-0.078-0.281-0.516-0.063-0.516 0.297 0 0.094-0.234 0.063-0.453s-0.25-0.359-0.359-0.547c-0.094 0.187-0.406 0.141-0.5-0.016 0 0.047-0.047 0.125-0.047 0.187-0.078 0-0.156 0.016-0.234-0.016 0.031-0.187 0.047-0.422 0.094-0.625 0.078-0.281 0.594-0.828-0.078-0.797-0.234 0.016-0.328 0.109-0.406 0.313-0.078 0.187-0.047 0.359-0.266 0.453-0.141 0.063-0.609 0.031-0.75-0.047-0.297-0.172-0.5-0.719-0.5-1.031-0.016-0.422 0.203-0.797 0-1.188 0.094-0.078 0.187-0.234 0.297-0.313 0.094-0.063 0.203 0.047 0.25-0.141-0.047-0.031-0.109-0.094-0.125-0.094 0.234 0.109 0.672-0.156 0.875 0 0.125 0.094 0.266 0.125 0.344-0.031 0.016-0.047-0.109-0.234-0.047-0.359 0.047 0.266 0.219 0.313 0.453 0.141 0.094 0.094 0.344 0.063 0.516 0.156 0.172 0.109 0.203 0.281 0.406 0.047 0.125 0.187 0.141 0.187 0.187 0.375 0.047 0.172 0.141 0.609 0.297 0.688 0.328 0.203 0.25-0.344 0.219-0.531-0.016-0.016-0.016-0.531-0.031-0.531-0.5-0.109-0.313-0.5-0.031-0.766 0.047-0.031 0.406-0.156 0.562-0.281 0.141-0.125 0.313-0.344 0.234-0.547 0.078 0 0.141-0.063 0.172-0.141-0.047-0.016-0.234-0.172-0.266-0.156 0.109-0.063 0.094-0.156 0.031-0.25 0.156-0.094 0.078-0.266 0.234-0.328 0.172 0.234 0.516-0.031 0.344-0.219 0.156-0.219 0.516-0.109 0.609-0.313 0.234 0.063 0.063-0.234 0.187-0.406 0.109-0.141 0.297-0.141 0.438-0.219 0 0.016 0.391-0.219 0.266-0.234 0.266 0.031 0.797-0.25 0.391-0.484 0.063-0.141-0.141-0.203-0.281-0.234 0.109-0.031 0.25 0.031 0.344-0.031 0.203-0.141 0.063-0.203-0.109-0.25-0.219-0.063-0.5 0.078-0.672 0.187zM13.734 23.844c2.141-0.375 4.047-1.437 5.484-2.953-0.094-0.094-0.266-0.063-0.391-0.125-0.125-0.047-0.219-0.094-0.375-0.125 0.031-0.313-0.313-0.422-0.531-0.578-0.203-0.156-0.328-0.328-0.625-0.266-0.031 0.016-0.344 0.125-0.281 0.187-0.203-0.172-0.297-0.266-0.562-0.344-0.25-0.078-0.422-0.391-0.672-0.109-0.125 0.125-0.063 0.313-0.125 0.438-0.203-0.172 0.187-0.375 0.031-0.562-0.187-0.219-0.516 0.141-0.672 0.234-0.094 0.078-0.203 0.109-0.266 0.203-0.078 0.109-0.109 0.25-0.172 0.359-0.047-0.125-0.313-0.094-0.328-0.187 0.063 0.375 0.063 0.766 0.141 1.141 0.047 0.219 0 0.578-0.187 0.75s-0.422 0.359-0.453 0.625c-0.031 0.187 0.016 0.359 0.187 0.406 0.016 0.234-0.25 0.406-0.234 0.656 0 0.016 0.016 0.172 0.031 0.25z"></path>
</symbol>
<symbol id="icon-briefcase" viewBox="0 0 28 28">
<path d="M10 4h8v-2h-8v2zM28 14v7.5c0 1.375-1.125 2.5-2.5 2.5h-23c-1.375 0-2.5-1.125-2.5-2.5v-7.5h10.5v2.5c0 0.547 0.453 1 1 1h5c0.547 0 1-0.453 1-1v-2.5h10.5zM16 14v2h-4v-2h4zM28 6.5v6h-28v-6c0-1.375 1.125-2.5 2.5-2.5h5.5v-2.5c0-0.828 0.672-1.5 1.5-1.5h9c0.828 0 1.5 0.672 1.5 1.5v2.5h5.5c1.375 0 2.5 1.125 2.5 2.5z"></path>
</symbol>
<symbol id="icon-group" viewBox="0 0 30 28">
<path d="M9.266 14c-1.625 0.047-3.094 0.75-4.141 2h-2.094c-1.563 0-3.031-0.75-3.031-2.484 0-1.266-0.047-5.516 1.937-5.516 0.328 0 1.953 1.328 4.062 1.328 0.719 0 1.406-0.125 2.078-0.359-0.047 0.344-0.078 0.688-0.078 1.031 0 1.422 0.453 2.828 1.266 4zM26 23.953c0 2.531-1.672 4.047-4.172 4.047h-13.656c-2.5 0-4.172-1.516-4.172-4.047 0-3.531 0.828-8.953 5.406-8.953 0.531 0 2.469 2.172 5.594 2.172s5.063-2.172 5.594-2.172c4.578 0 5.406 5.422 5.406 8.953zM10 4c0 2.203-1.797 4-4 4s-4-1.797-4-4 1.797-4 4-4 4 1.797 4 4zM21 10c0 3.313-2.688 6-6 6s-6-2.688-6-6 2.688-6 6-6 6 2.688 6 6zM30 13.516c0 1.734-1.469 2.484-3.031 2.484h-2.094c-1.047-1.25-2.516-1.953-4.141-2 0.812-1.172 1.266-2.578 1.266-4 0-0.344-0.031-0.688-0.078-1.031 0.672 0.234 1.359 0.359 2.078 0.359 2.109 0 3.734-1.328 4.062-1.328 1.984 0 1.937 4.25 1.937 5.516zM28 4c0 2.203-1.797 4-4 4s-4-1.797-4-4 1.797-4 4-4 4 1.797 4 4z"></path>
</symbol>
<symbol id="icon-cloud" viewBox="0 0 30 28">
<path d="M30 18c0 3.313-2.688 6-6 6h-17c-3.859 0-7-3.141-7-7 0-2.797 1.656-5.219 4.031-6.328-0.016-0.219-0.031-0.453-0.031-0.672 0-4.422 3.578-8 8-8 3.344 0 6.203 2.047 7.406 4.969 0.688-0.609 1.594-0.969 2.594-0.969 2.203 0 4 1.797 4 4 0 0.797-0.234 1.531-0.641 2.156 2.656 0.625 4.641 3 4.641 5.844z"></path>
</symbol>
<symbol id="icon-money" viewBox="0 0 30 28">
<path d="M12 18h6v-1.5h-2v-7h-1.781l-2.312 2.141 1.203 1.25c0.375-0.328 0.609-0.5 0.859-0.891h0.031v4.5h-2v1.5zM20 14c0 2.844-1.719 6.5-5 6.5s-5-3.656-5-6.5 1.719-6.5 5-6.5 5 3.656 5 6.5zM28 18v-8c-2.203 0-4-1.797-4-4h-18c0 2.203-1.797 4-4 4v8c2.203 0 4 1.797 4 4h18c0-2.203 1.797-4 4-4zM30 5v18c0 0.547-0.453 1-1 1h-28c-0.547 0-1-0.453-1-1v-18c0-0.547 0.453-1 1-1h28c0.547 0 1 0.453 1 1z"></path>
</symbol>
<symbol id="icon-envelope" viewBox="0 0 28 28">
<path d="M28 11.094v12.406c0 1.375-1.125 2.5-2.5 2.5h-23c-1.375 0-2.5-1.125-2.5-2.5v-12.406c0.469 0.516 1 0.969 1.578 1.359 2.594 1.766 5.219 3.531 7.766 5.391 1.313 0.969 2.938 2.156 4.641 2.156h0.031c1.703 0 3.328-1.188 4.641-2.156 2.547-1.844 5.172-3.625 7.781-5.391 0.562-0.391 1.094-0.844 1.563-1.359zM28 6.5c0 1.75-1.297 3.328-2.672 4.281-2.438 1.687-4.891 3.375-7.313 5.078-1.016 0.703-2.734 2.141-4 2.141h-0.031c-1.266 0-2.984-1.437-4-2.141-2.422-1.703-4.875-3.391-7.297-5.078-1.109-0.75-2.688-2.516-2.688-3.938 0-1.531 0.828-2.844 2.5-2.844h23c1.359 0 2.5 1.125 2.5 2.5z"></path>
</symbol>
<symbol id="icon-dashboard" viewBox="0 0 28 28">
<path d="M6 18c0-1.109-0.891-2-2-2s-2 0.891-2 2 0.891 2 2 2 2-0.891 2-2zM9 11c0-1.109-0.891-2-2-2s-2 0.891-2 2 0.891 2 2 2 2-0.891 2-2zM15.687 18.516l1.578-5.969c0.125-0.531-0.187-1.078-0.719-1.219v0c-0.531-0.141-1.078 0.187-1.219 0.719l-1.578 5.969c-1.234 0.094-2.312 0.953-2.656 2.219-0.422 1.609 0.547 3.25 2.141 3.672 1.609 0.422 3.25-0.547 3.672-2.141 0.328-1.266-0.203-2.547-1.219-3.25zM26 18c0-1.109-0.891-2-2-2s-2 0.891-2 2 0.891 2 2 2 2-0.891 2-2zM16 8c0-1.109-0.891-2-2-2s-2 0.891-2 2 0.891 2 2 2 2-0.891 2-2zM23 11c0-1.109-0.891-2-2-2s-2 0.891-2 2 0.891 2 2 2 2-0.891 2-2zM28 18c0 2.688-0.766 5.281-2.203 7.547-0.187 0.281-0.5 0.453-0.844 0.453h-21.906c-0.344 0-0.656-0.172-0.844-0.453-1.437-2.25-2.203-4.859-2.203-7.547 0-7.719 6.281-14 14-14s14 6.281 14 14z"></path>
</symbol>
<symbol id="icon-cloud-download" viewBox="0 0 30 28">
<path d="M20 14.5c0-0.281-0.219-0.5-0.5-0.5h-3.5v-5.5c0-0.266-0.234-0.5-0.5-0.5h-3c-0.266 0-0.5 0.234-0.5 0.5v5.5h-3.5c-0.281 0-0.5 0.234-0.5 0.5 0 0.125 0.047 0.266 0.141 0.359l5.5 5.5c0.094 0.094 0.219 0.141 0.359 0.141 0.125 0 0.266-0.047 0.359-0.141l5.484-5.484c0.094-0.109 0.156-0.234 0.156-0.375zM30 18c0 3.313-2.688 6-6 6h-17c-3.859 0-7-3.141-7-7 0-2.719 1.578-5.187 4.031-6.328-0.016-0.234-0.031-0.453-0.031-0.672 0-4.422 3.578-8 8-8 3.25 0 6.172 1.969 7.406 4.969 0.719-0.625 1.641-0.969 2.594-0.969 2.203 0 4 1.797 4 4 0 0.766-0.219 1.516-0.641 2.156 2.719 0.641 4.641 3.063 4.641 5.844z"></path>
</symbol>
<symbol id="icon-suitcase" viewBox="0 0 28 28">
<path d="M10 6h8v-2h-8v2zM4.5 6v20h-1c-1.922 0-3.5-1.578-3.5-3.5v-13c0-1.922 1.578-3.5 3.5-3.5h1zM22 6v20h-16v-20h2v-2.5c0-0.828 0.672-1.5 1.5-1.5h9c0.828 0 1.5 0.672 1.5 1.5v2.5h2zM28 9.5v13c0 1.922-1.578 3.5-3.5 3.5h-1v-20h1c1.922 0 3.5 1.578 3.5 3.5z"></path>
</symbol>
<symbol id="icon-laptop1" viewBox="0 0 30 28">
<path d="M6.5 20c-1.375 0-2.5-1.125-2.5-2.5v-11c0-1.375 1.125-2.5 2.5-2.5h17c1.375 0 2.5 1.125 2.5 2.5v11c0 1.375-1.125 2.5-2.5 2.5h-17zM6 6.5v11c0 0.266 0.234 0.5 0.5 0.5h17c0.266 0 0.5-0.234 0.5-0.5v-11c0-0.266-0.234-0.5-0.5-0.5h-17c-0.266 0-0.5 0.234-0.5 0.5zM27.5 21h2.5v1.5c0 0.828-1.125 1.5-2.5 1.5h-25c-1.375 0-2.5-0.672-2.5-1.5v-1.5h27.5zM16.25 22.5c0.141 0 0.25-0.109 0.25-0.25s-0.109-0.25-0.25-0.25h-2.5c-0.141 0-0.25 0.109-0.25 0.25s0.109 0.25 0.25 0.25h2.5z"></path>
</symbol>
<symbol id="icon-ticket" viewBox="0 0 28 28">
<path d="M16 7.063l4.937 4.937-8.937 8.937-4.937-4.937zM12.703 22.359l9.656-9.656c0.391-0.391 0.391-1.016 0-1.406l-5.656-5.656c-0.375-0.375-1.031-0.375-1.406 0l-9.656 9.656c-0.391 0.391-0.391 1.016 0 1.406l5.656 5.656c0.187 0.187 0.438 0.281 0.703 0.281s0.516-0.094 0.703-0.281zM26.594 12.406l-14.172 14.187c-0.781 0.766-2.063 0.766-2.828 0l-1.969-1.969c1.172-1.172 1.172-3.078 0-4.25s-3.078-1.172-4.25 0l-1.953-1.969c-0.781-0.766-0.781-2.047 0-2.828l14.172-14.156c0.766-0.781 2.047-0.781 2.828 0l1.953 1.953c-1.172 1.172-1.172 3.078 0 4.25s3.078 1.172 4.25 0l1.969 1.953c0.766 0.781 0.766 2.063 0 2.828z"></path>
</symbol>
<symbol id="icon-line-chart" viewBox="0 0 32 28">
<path d="M32 24v2h-32v-24h2v22h30zM30 4.5v6.797c0 0.438-0.531 0.672-0.859 0.344l-1.891-1.891-9.891 9.891c-0.203 0.203-0.516 0.203-0.719 0l-3.641-3.641-6.5 6.5-3-3 9.141-9.141c0.203-0.203 0.516-0.203 0.719 0l3.641 3.641 7.25-7.25-1.891-1.891c-0.328-0.328-0.094-0.859 0.344-0.859h6.797c0.281 0 0.5 0.219 0.5 0.5z"></path>
</symbol>
<symbol id="icon-volume-control-phone" viewBox="0 0 22 28">
<path d="M9.641 26.391c0-0.375-0.828-3.031-1-3.656-0.094-0.391-0.125-1.031-0.422-1.313-0.203-0.187-0.531-0.219-0.797-0.219-0.734 0-1.469 0.172-2.203 0.172-0.219 0-0.547-0.016-0.734-0.172-0.25-0.203-0.375-0.906-0.469-1.219-0.375-1.297-0.578-2.625-0.578-3.984s0.203-2.688 0.578-3.984c0.094-0.313 0.219-1.016 0.469-1.219 0.187-0.156 0.516-0.172 0.734-0.172 0.734 0 1.469 0.172 2.203 0.172 0.266 0 0.594-0.031 0.797-0.219 0.297-0.281 0.328-0.922 0.422-1.313 0.172-0.625 1-3.281 1-3.656 0-0.531-1.406-1.313-1.859-1.484-0.234-0.094-0.469-0.125-0.703-0.125-0.516 0-1.031 0.141-1.531 0.281-2.562 0.766-3.172 2.328-4.188 4.531-1.094 2.359-1.359 4.609-1.359 7.187s0.266 4.828 1.359 7.187c1.016 2.203 1.625 3.766 4.188 4.531 0.5 0.141 1.016 0.281 1.531 0.281 0.234 0 0.469-0.031 0.703-0.125 0.453-0.172 1.859-0.953 1.859-1.484zM12.125 12.125c-0.266 0-0.516-0.109-0.703-0.297-0.391-0.391-0.406-1.031 0-1.422 0.375-0.375 0.578-0.875 0.578-1.406s-0.203-1.031-0.578-1.422c-0.406-0.391-0.391-1.016 0-1.406s1.016-0.391 1.406 0c0.75 0.75 1.172 1.766 1.172 2.828s-0.422 2.078-1.172 2.828c-0.203 0.187-0.453 0.297-0.703 0.297zM14.953 14.953c-0.266 0-0.516-0.094-0.703-0.297-0.391-0.391-0.391-1.016 0-1.406 1.125-1.141 1.75-2.641 1.75-4.25s-0.625-3.109-1.75-4.25c-0.391-0.391-0.391-1.016 0-1.406s1.016-0.391 1.406 0c1.516 1.516 2.344 3.516 2.344 5.656s-0.828 4.141-2.344 5.656c-0.187 0.203-0.453 0.297-0.703 0.297zM17.781 17.781c-0.266 0-0.516-0.094-0.703-0.297-0.391-0.391-0.391-1.016 0-1.406 1.875-1.891 2.922-4.406 2.922-7.078s-1.047-5.187-2.922-7.078c-0.391-0.391-0.391-1.016 0-1.406s1.016-0.391 1.406 0c2.266 2.266 3.516 5.281 3.516 8.484s-1.25 6.219-3.516 8.484c-0.187 0.203-0.453 0.297-0.703 0.297z"></path>
</symbol>
<symbol id="icon-handshake-o" viewBox="0 0 36 28">
<path d="M3 18c1.313 0 1.313-2 0-2s-1.313 2 0 2zM26.016 17.094c-1.234-1.609-2.438-3.25-3.844-4.719l-1.953 2.188c-1.719 1.953-4.797 1.906-6.469-0.094-1.188-1.437-1.188-3.5 0.031-4.922l2.766-3.219c-0.969-0.5-2.141-0.328-3.187-0.328-0.922 0-1.813 0.375-2.469 1.031l-2.469 2.469h-2.422v8.5c0.688 0 1.312-0.094 1.859 0.438l4.641 4.562c0.953 0.922 2.187 1.734 3.547 1.734 0.703 0 1.453-0.234 1.953-0.734 1.172 0.406 2.531-0.25 2.891-1.453 0.75 0.063 1.437-0.172 1.984-0.688 0.359-0.328 0.828-0.984 0.781-1.5 0.141 0.141 0.484 0.156 0.672 0.156 1.859 0 2.828-1.953 1.687-3.422zM28.5 18h1.5v-8h-1.453l-2.453-2.812c-0.656-0.75-1.641-1.188-2.641-1.188h-2.609c-0.875 0-1.719 0.391-2.281 1.047l-3.266 3.797c-0.578 0.688-0.578 1.656-0.016 2.344 0.891 1.062 2.531 1.078 3.453 0.047l3.016-3.406c0.719-0.797 2.031-0.047 1.703 0.969 0.594 0.688 1.234 1.359 1.813 2.047 0.781 0.969 1.531 1.984 2.297 2.969 0.484 0.625 0.844 1.375 0.938 2.188zM33 18c1.313 0 1.313-2 0-2s-1.313 2 0 2zM36 9v10c0 0.547-0.453 1-1 1h-6.781c-0.562 1.359-1.797 2.266-3.234 2.469-0.672 0.984-1.703 1.734-2.859 1.984-0.859 1.094-2.25 1.75-3.641 1.656-2.578 1.453-5.484 0.187-7.406-1.703l-4.484-4.406h-5.594c-0.547 0-1-0.453-1-1v-10.5c0-0.547 0.453-1 1-1h6.578c1.813-1.813 3.062-3.5 5.781-3.5h1.828c1.016 0 2 0.313 2.828 0.875 0.828-0.562 1.813-0.875 2.828-0.875h2.609c2.969 0 4.203 1.937 6 4h5.547c0.547 0 1 0.453 1 1z"></path>
</symbol>
<symbol id="icon-headphones" viewBox="0 0 32 32">
<path d="M9 18h-2v14h2c0.55 0 1-0.45 1-1v-12c0-0.55-0.45-1-1-1z"></path>
<path d="M23 18c-0.55 0-1 0.45-1 1v12c0 0.55 0.45 1 1 1h2v-14h-2z"></path>
<path d="M32 16c0-8.837-7.163-16-16-16s-16 7.163-16 16c0 1.919 0.338 3.759 0.958 5.464-0.609 1.038-0.958 2.246-0.958 3.536 0 3.526 2.608 6.443 6 6.929v-13.857c-0.997 0.143-1.927 0.495-2.742 1.012-0.168-0.835-0.258-1.699-0.258-2.584 0-7.18 5.82-13 13-13s13 5.82 13 13c0 0.885-0.088 1.749-0.257 2.584-0.816-0.517-1.745-0.87-2.743-1.013v13.858c3.392-0.485 6-3.402 6-6.929 0-1.29-0.349-2.498-0.958-3.536 0.62-1.705 0.958-3.545 0.958-5.465z"></path>
</symbol>
<symbol id="icon-file-zip" viewBox="0 0 32 32">
<path d="M28.681 7.159c-0.694-0.947-1.662-2.053-2.724-3.116s-2.169-2.030-3.116-2.724c-1.612-1.182-2.393-1.319-2.841-1.319h-15.5c-1.378 0-2.5 1.121-2.5 2.5v27c0 1.378 1.121 2.5 2.5 2.5h23c1.378 0 2.5-1.122 2.5-2.5v-19.5c0-0.448-0.137-1.23-1.319-2.841v0 0zM24.543 5.457c0.959 0.959 1.712 1.825 2.268 2.543h-4.811v-4.811c0.718 0.556 1.584 1.309 2.543 2.268v0 0zM28 29.5c0 0.271-0.229 0.5-0.5 0.5h-23c-0.271 0-0.5-0.229-0.5-0.5v-27c0-0.271 0.229-0.5 0.5-0.5 0 0 15.499-0 15.5 0v7c0 0.552 0.448 1 1 1h7v19.5z"></path>
<path d="M8 2h4v2h-4v-2z"></path>
<path d="M12 4h4v2h-4v-2z"></path>
<path d="M8 6h4v2h-4v-2z"></path>
<path d="M12 8h4v2h-4v-2z"></path>
<path d="M8 10h4v2h-4v-2z"></path>
<path d="M12 12h4v2h-4v-2z"></path>
<path d="M8 14h4v2h-4v-2z"></path>
<path d="M12 16h4v2h-4v-2z"></path>
<path d="M8 26.5c0 0.825 0.675 1.5 1.5 1.5h5c0.825 0 1.5-0.675 1.5-1.5v-5c0-0.825-0.675-1.5-1.5-1.5h-2.5v-2h-4v8.5zM14 24v2h-4v-2h4z"></path>
</symbol>
<symbol id="icon-phone" viewBox="0 0 32 32">
<path d="M22 20c-2 2-2 4-4 4s-4-2-6-4-4-4-4-6 2-2 4-4-4-8-6-8-6 6-6 6c0 4 4.109 12.109 8 16s12 8 16 8c0 0 6-4 6-6s-6-8-8-6z"></path>
</symbol>
<symbol id="icon-display" viewBox="0 0 32 32">
<path d="M0 2v20h32v-20h-32zM30 20h-28v-16h28v16zM21 24h-10l-1 4-2 2h16l-2-2z"></path>
</symbol>
<symbol id="icon-laptop" viewBox="0 0 32 32">
<path d="M28 22v-16c0-1.1-0.9-2-2-2h-20c-1.1 0-2 0.9-2 2v16h-4v6h32v-6h-4zM20 26h-8v-2h8v2zM26 22h-20v-15.996c0.001-0.001 0.002-0.003 0.004-0.004h19.993c0.001 0.001 0.003 0.002 0.004 0.004v15.996z"></path>
</symbol>
<symbol id="icon-mobile2" viewBox="0 0 32 32">
<path d="M24 0h-18c-1.1 0-2 0.9-2 2v28c0 1.1 0.9 2 2 2h18c1.1 0 2-0.9 2-2v-28c0-1.1-0.9-2-2-2zM15 30.556c-0.859 0-1.556-0.697-1.556-1.556s0.697-1.556 1.556-1.556 1.556 0.697 1.556 1.556-0.697 1.556-1.556 1.556zM24 26h-18v-22h18v22z"></path>
</symbol>
<symbol id="icon-drive" viewBox="0 0 32 32">
<path d="M6 28h20c3.314 0 6-2.686 6-6h-32c0 3.314 2.686 6 6 6zM26 24h2v2h-2v-2zM30 4h-28l-2 16h32z"></path>
</symbol>
<symbol id="icon-lab" viewBox="0 0 32 32">
<path d="M29.884 25.14l-9.884-16.47v-6.671h1c0.55 0 1-0.45 1-1s-0.45-1-1-1h-10c-0.55 0-1 0.45-1 1s0.45 1 1 1h1v6.671l-9.884 16.47c-2.264 3.773-0.516 6.86 3.884 6.86h20c4.4 0 6.148-3.087 3.884-6.86zM7.532 20l6.468-10.779v-7.221h4v7.221l6.468 10.779h-16.935z"></path>
</symbol>
<symbol id="icon-menu" viewBox="0 0 32 32">
<path d="M2 6h28v6h-28zM2 14h28v6h-28zM2 22h28v6h-28z"></path>
</symbol>
<symbol id="icon-download3" viewBox="0 0 32 32">
<path d="M23 14l-8 8-8-8h5v-12h6v12zM15 22h-15v8h30v-8h-15zM28 26h-4v-2h4v2z"></path>
</symbol>
<symbol id="icon-arrow-right2" viewBox="0 0 32 32">
<path d="M19.414 27.414l10-10c0.781-0.781 0.781-2.047 0-2.828l-10-10c-0.781-0.781-2.047-0.781-2.828 0s-0.781 2.047 0 2.828l6.586 6.586h-19.172c-1.105 0-2 0.895-2 2s0.895 2 2 2h19.172l-6.586 6.586c-0.39 0.39-0.586 0.902-0.586 1.414s0.195 1.024 0.586 1.414c0.781 0.781 2.047 0.781 2.828 0z"></path>
</symbol>
<symbol id="icon-tab" viewBox="0 0 32 32">
<path d="M30 0h2v16h-2v-16z"></path>
<path d="M0 16h2v16h-2v-16z"></path>
<path d="M10 22h22v4h-22v5l-7-7 7-7v5z"></path>
<path d="M22 10h-22v-4h22v-5l7 7-7 7z"></path>
</symbol>
<symbol id="icon-embed2" viewBox="0 0 40 32">
<path d="M26 23l3 3 10-10-10-10-3 3 7 7z"></path>
<path d="M14 9l-3-3-10 10 10 10 3-3-7-7z"></path>
<path d="M21.916 4.704l2.171 0.592-6 22.001-2.171-0.592 6-22.001z"></path>
</symbol>
<symbol id="icon-facebook" viewBox="0 0 32 32">
<path d="M19 6h5v-6h-5c-3.86 0-7 3.14-7 7v3h-4v6h4v16h6v-16h5l1-6h-6v-3c0-0.542 0.458-1 1-1z"></path>
</symbol>
<symbol id="icon-instagram" viewBox="0 0 32 32">
<path d="M16 2.881c4.275 0 4.781 0.019 6.462 0.094 1.563 0.069 2.406 0.331 2.969 0.55 0.744 0.288 1.281 0.638 1.837 1.194 0.563 0.563 0.906 1.094 1.2 1.838 0.219 0.563 0.481 1.412 0.55 2.969 0.075 1.688 0.094 2.194 0.094 6.463s-0.019 4.781-0.094 6.463c-0.069 1.563-0.331 2.406-0.55 2.969-0.288 0.744-0.637 1.281-1.194 1.837-0.563 0.563-1.094 0.906-1.837 1.2-0.563 0.219-1.413 0.481-2.969 0.55-1.688 0.075-2.194 0.094-6.463 0.094s-4.781-0.019-6.463-0.094c-1.563-0.069-2.406-0.331-2.969-0.55-0.744-0.288-1.281-0.637-1.838-1.194-0.563-0.563-0.906-1.094-1.2-1.837-0.219-0.563-0.481-1.413-0.55-2.969-0.075-1.688-0.094-2.194-0.094-6.463s0.019-4.781 0.094-6.463c0.069-1.563 0.331-2.406 0.55-2.969 0.288-0.744 0.638-1.281 1.194-1.838 0.563-0.563 1.094-0.906 1.838-1.2 0.563-0.219 1.412-0.481 2.969-0.55 1.681-0.075 2.188-0.094 6.463-0.094zM16 0c-4.344 0-4.887 0.019-6.594 0.094-1.7 0.075-2.869 0.35-3.881 0.744-1.056 0.412-1.95 0.956-2.837 1.85-0.894 0.888-1.438 1.781-1.85 2.831-0.394 1.019-0.669 2.181-0.744 3.881-0.075 1.713-0.094 2.256-0.094 6.6s0.019 4.887 0.094 6.594c0.075 1.7 0.35 2.869 0.744 3.881 0.413 1.056 0.956 1.95 1.85 2.837 0.887 0.887 1.781 1.438 2.831 1.844 1.019 0.394 2.181 0.669 3.881 0.744 1.706 0.075 2.25 0.094 6.594 0.094s4.888-0.019 6.594-0.094c1.7-0.075 2.869-0.35 3.881-0.744 1.050-0.406 1.944-0.956 2.831-1.844s1.438-1.781 1.844-2.831c0.394-1.019 0.669-2.181 0.744-3.881 0.075-1.706 0.094-2.25 0.094-6.594s-0.019-4.887-0.094-6.594c-0.075-1.7-0.35-2.869-0.744-3.881-0.394-1.063-0.938-1.956-1.831-2.844-0.887-0.887-1.781-1.438-2.831-1.844-1.019-0.394-2.181-0.669-3.881-0.744-1.712-0.081-2.256-0.1-6.6-0.1v0z"></path>
<path d="M16 7.781c-4.537 0-8.219 3.681-8.219 8.219s3.681 8.219 8.219 8.219 8.219-3.681 8.219-8.219c0-4.537-3.681-8.219-8.219-8.219zM16 21.331c-2.944 0-5.331-2.387-5.331-5.331s2.387-5.331 5.331-5.331c2.944 0 5.331 2.387 5.331 5.331s-2.387 5.331-5.331 5.331z"></path>
<path d="M26.462 7.456c0 1.060-0.859 1.919-1.919 1.919s-1.919-0.859-1.919-1.919c0-1.060 0.859-1.919 1.919-1.919s1.919 0.859 1.919 1.919z"></path>
</symbol>
<symbol id="icon-linkedin2" viewBox="0 0 32 32">
<path d="M12 12h5.535v2.837h0.079c0.77-1.381 2.655-2.837 5.464-2.837 5.842 0 6.922 3.637 6.922 8.367v9.633h-5.769v-8.54c0-2.037-0.042-4.657-3.001-4.657-3.005 0-3.463 2.218-3.463 4.509v8.688h-5.767v-18z"></path>
<path d="M2 12h6v18h-6v-18z"></path>
<path d="M8 7c0 1.657-1.343 3-3 3s-3-1.343-3-3c0-1.657 1.343-3 3-3s3 1.343 3 3z"></path>
</symbol>
</defs>
</svg>
